<svg width="8" height="5" viewBox="0 0 8 5" fill="none" xmlns="http://www.w3.org/2000/svg">
<path d="M3.46331 4.16165L0.160394 0.858733C0.115155 0.813493 0.0769072 0.760439 0.0456506 0.699571C0.0152166 0.639526 0 0.574956 0 0.505862C0 0.367676 0.0452393 0.248819 0.135719 0.149292C0.227843 0.0497641 0.348756 0 0.498459 0H7.50281C7.65169 0 7.77178 0.050997 7.86308 0.152992C7.95438 0.254987 8.00003 0.373433 8.00003 0.50833C8.00003 0.542877 7.94657 0.659678 7.83964 0.858733L4.53672 4.16165C4.46023 4.23814 4.37797 4.29695 4.28996 4.33808C4.20195 4.37921 4.1053 4.39977 4.00002 4.39977C3.89473 4.39977 3.79808 4.37921 3.71007 4.33808C3.62206 4.29695 3.5398 4.23814 3.46331 4.16165Z" fill="white"/>
</svg>
