<svg width="15" height="28" viewBox="0 0 15 28" fill="none" xmlns="http://www.w3.org/2000/svg">
<path d="M10.8251 0C9.01237 0 7.27387 0.7476 5.99207 2.07834C4.71026 3.40908 3.99015 5.21394 3.99015 7.09589V11.0466H0.332512C0.149261 11.0466 0 11.2 0 11.3918V16.6082C0 16.7985 0.147783 16.9534 0.332512 16.9534H3.99015V27.6548C3.99015 27.845 4.13793 28 4.32266 28H9.34729C9.53054 28 9.6798 27.8466 9.6798 27.6548V16.9534H13.37C13.5222 16.9534 13.6552 16.846 13.6921 16.6926L14.9483 11.4762C14.9606 11.4253 14.9617 11.3721 14.9512 11.3207C14.9408 11.2694 14.9193 11.2211 14.8882 11.1797C14.8572 11.1383 14.8174 11.1048 14.772 11.0817C14.7266 11.0586 14.6767 11.0466 14.6261 11.0466H9.6798V7.09589C9.6798 6.93974 9.70943 6.78512 9.76699 6.64086C9.82454 6.4966 9.90891 6.36552 10.0153 6.25511C10.1216 6.1447 10.2479 6.05711 10.3868 5.99736C10.5258 5.9376 10.6747 5.90685 10.8251 5.90685H14.6675C14.8507 5.90685 15 5.75342 15 5.56164V0.345205C15 0.154959 14.8522 0 14.6675 0H10.8251Z" fill="white"/>
</svg>
