<svg width="16" height="16" viewBox="0 0 16 16" fill="none" xmlns="http://www.w3.org/2000/svg">
<g clip-path="url(#clip0_1_180)">
<path d="M8.18666 7.2489C7.68678 7.24364 7.19964 7.0906 6.78656 6.80905C6.37347 6.52751 6.05292 6.13004 5.86526 5.6667C5.67761 5.20335 5.63123 4.69484 5.73197 4.20519C5.83271 3.71555 6.07606 3.26665 6.43139 2.91502C6.78672 2.56339 7.23815 2.32474 7.72882 2.22914C8.2195 2.13353 8.7275 2.18523 9.18885 2.37773C9.65021 2.57023 10.0443 2.89493 10.3215 3.31093C10.5987 3.72694 10.7466 4.21566 10.7467 4.71557C10.742 5.39062 10.4699 6.03629 9.99005 6.51113C9.51021 6.98597 8.86173 7.25127 8.18666 7.2489ZM8.18666 3.07112C7.86261 3.07638 7.54733 3.17727 7.28044 3.36113C7.01354 3.54499 6.80692 3.80362 6.68654 4.10452C6.56615 4.40543 6.53737 4.7352 6.6038 5.05242C6.67023 5.36963 6.82891 5.66014 7.05992 5.88746C7.29092 6.11478 7.58395 6.26877 7.90219 6.33009C8.22044 6.39141 8.5497 6.35733 8.84863 6.23212C9.14757 6.10691 9.40283 5.89616 9.58238 5.62634C9.76192 5.35652 9.85773 5.03966 9.85777 4.71557C9.85308 4.27626 9.67466 3.85668 9.36152 3.54854C9.04838 3.24039 8.62598 3.06875 8.18666 3.07112Z" fill="#05AF2B"/>
<path d="M8.18666 7.2489C7.68679 7.24364 7.19964 7.0906 6.78656 6.80905C6.37348 6.52751 6.05293 6.13004 5.86527 5.6667C5.67761 5.20335 5.63123 4.69484 5.73197 4.20519C5.83271 3.71555 6.07607 3.26665 6.4314 2.91502C6.78673 2.56339 7.23815 2.32474 7.72883 2.22914C8.2195 2.13353 8.7275 2.18523 9.18885 2.37773C9.65021 2.57023 10.0443 2.89493 10.3215 3.31093C10.5987 3.72694 10.7466 4.21566 10.7467 4.71557C10.742 5.39062 10.4699 6.03629 9.99005 6.51113C9.51021 6.98597 8.86173 7.25127 8.18666 7.2489ZM8.18666 3.07112C7.86261 3.07638 7.54734 3.17727 7.28044 3.36113C7.01354 3.54499 6.80693 3.80362 6.68654 4.10452C6.56616 4.40543 6.53737 4.7352 6.6038 5.05242C6.67023 5.36963 6.82892 5.66014 7.05992 5.88746C7.29093 6.11478 7.58395 6.26877 7.9022 6.33009C8.22044 6.39141 8.5497 6.35733 8.84864 6.23212C9.14757 6.10691 9.40284 5.89616 9.58238 5.62634C9.76192 5.35652 9.85773 5.03966 9.85778 4.71557C9.85308 4.27626 9.67467 3.85668 9.36153 3.54854C9.04838 3.24039 8.62599 3.06875 8.18666 3.07112ZM9.73777 7.84446C7.76646 7.50143 5.73705 7.81365 3.96 8.73334C3.83385 8.80339 3.7294 8.90677 3.65807 9.03219C3.58674 9.15761 3.55127 9.30023 3.55555 9.44446V11.0267C3.55555 11.1446 3.60238 11.2576 3.68573 11.3409C3.76908 11.4243 3.88212 11.4711 4 11.4711C4.11787 11.4711 4.23092 11.4243 4.31427 11.3409C4.39762 11.2576 4.44444 11.1446 4.44444 11.0267V9.50223C6.0923 8.67541 7.96621 8.41306 9.77777 8.75557L9.73777 7.84446Z" fill="#05AF2B"/>
<path d="M14.6667 9.77776H11.6889V9.11998C11.6889 9.00211 11.6421 8.88906 11.5587 8.80571C11.4754 8.72236 11.3623 8.67554 11.2444 8.67554C11.1266 8.67554 11.0135 8.72236 10.9302 8.80571C10.8468 8.88906 10.8 9.00211 10.8 9.11998V9.77776H7.55556C7.43768 9.77776 7.32464 9.82458 7.24129 9.90793C7.15794 9.99128 7.11111 10.1043 7.11111 10.2222V14.6666C7.11111 14.7845 7.15794 14.8976 7.24129 14.9809C7.32464 15.0643 7.43768 15.1111 7.55556 15.1111H14.6667C14.7845 15.1111 14.8976 15.0643 14.9809 14.9809C15.0643 14.8976 15.1111 14.7845 15.1111 14.6666V10.2222C15.1111 10.1043 15.0643 9.99128 14.9809 9.90793C14.8976 9.82458 14.7845 9.77776 14.6667 9.77776ZM14.2222 14.2222H8V10.6666H10.8V10.8489C10.8 10.9667 10.8468 11.0798 10.9302 11.1631C11.0135 11.2465 11.1266 11.2933 11.2444 11.2933C11.3623 11.2933 11.4754 11.2465 11.5587 11.1631C11.6421 11.0798 11.6889 10.9667 11.6889 10.8489V10.6666H14.2222V14.2222Z" fill="#05AF2B"/>
<path d="M9.69333 12.1866H12.3422V12.8089H9.69333V12.1866ZM4.81777 5.43998C3.5873 5.46056 2.37817 5.76475 1.28444 6.32887C1.16549 6.3917 1.06585 6.48568 0.996181 6.60075C0.926509 6.71583 0.889422 6.84768 0.888885 6.9822V8.35998C0.888885 8.47785 0.935711 8.5909 1.01906 8.67425C1.10241 8.7576 1.21546 8.80442 1.33333 8.80442C1.4512 8.80442 1.56425 8.7576 1.6476 8.67425C1.73095 8.5909 1.77777 8.47785 1.77777 8.35998V7.07109C2.8228 6.55092 3.9798 6.29601 5.14666 6.32887C4.99411 6.05027 4.8833 5.75078 4.81777 5.43998ZM14.7156 6.32442C13.7346 5.80985 12.6565 5.50702 11.5511 5.43553C11.4858 5.74575 11.3765 6.04506 11.2267 6.32442C12.268 6.34949 13.2909 6.60447 14.2222 7.07109V8.35998C14.2222 8.47785 14.269 8.5909 14.3524 8.67425C14.4357 8.7576 14.5488 8.80442 14.6667 8.80442C14.7845 8.80442 14.8976 8.7576 14.9809 8.67425C15.0643 8.5909 15.1111 8.47785 15.1111 8.35998V6.9822C15.1114 6.84692 15.0747 6.71414 15.005 6.59821C14.9352 6.48228 14.8352 6.38761 14.7156 6.32442ZM4.73777 4.71553V4.41776C4.3896 4.37116 4.07282 4.19208 3.85336 3.9178C3.6339 3.64351 3.52869 3.29516 3.55961 2.94525C3.59054 2.59534 3.75522 2.27083 4.01938 2.03929C4.28354 1.80775 4.62683 1.68701 4.97777 1.7022C5.3428 1.70154 5.69366 1.84347 5.95555 2.09776C6.18672 1.90732 6.44049 1.7461 6.71111 1.61776C6.40871 1.27005 6.00806 1.02213 5.56194 0.906676C5.11583 0.791223 4.64521 0.813656 4.2121 0.971018C3.779 1.12838 3.40374 1.41328 3.13579 1.78818C2.86784 2.16307 2.71977 2.61036 2.71111 3.07109C2.72043 3.63498 2.93964 4.17514 3.32591 4.58607C3.71218 4.99699 4.23776 5.24916 4.8 5.29331C4.76225 5.10293 4.74143 4.90958 4.73777 4.71553ZM11.0089 0.813311C10.7035 0.813379 10.4011 0.874336 10.1195 0.99262C9.83793 1.1109 9.58274 1.28414 9.36889 1.5022C9.66906 1.61173 9.9531 1.76123 10.2133 1.94664C10.4208 1.80261 10.6635 1.71759 10.9155 1.70065C11.1675 1.6837 11.4194 1.73547 11.6443 1.85043C11.8692 1.96539 12.0587 2.13923 12.1926 2.35342C12.3264 2.56761 12.3997 2.81411 12.4044 3.06664C12.4016 3.32604 12.3254 3.57934 12.1846 3.79721C12.0438 4.01509 11.8442 4.18863 11.6089 4.29776C11.6269 4.43479 11.6359 4.57287 11.6356 4.71109C11.6342 4.88973 11.6193 5.06801 11.5911 5.24442C12.0753 5.11995 12.5047 4.8389 12.8126 4.44503C13.1205 4.05115 13.2895 3.56655 13.2933 3.06664C13.2875 2.46545 13.0439 1.891 12.6159 1.46879C12.1878 1.04659 11.6101 0.810934 11.0089 0.813311Z" fill="#05AF2B"/>
</g>
<defs>
<clipPath id="clip0_1_180">
<rect width="16" height="16" fill="white"/>
</clipPath>
</defs>
</svg>
