<svg width="40" height="40" viewBox="0 0 40 40" fill="none" xmlns="http://www.w3.org/2000/svg">
<g opacity="0.51">
<rect width="40" height="40" rx="20" fill="#4B4B4B"/>
<path d="M10.5 20C10.5 15.522 10.5 13.282 11.891 11.891C13.282 10.5 15.521 10.5 20 10.5C24.478 10.5 26.718 10.5 28.109 11.891C29.5 13.282 29.5 15.521 29.5 20C29.5 24.478 29.5 26.718 28.109 28.109C26.718 29.5 24.479 29.5 20 29.5C15.522 29.5 13.282 29.5 11.891 28.109C10.5 26.718 10.5 24.479 10.5 20Z" stroke="white" stroke-width="1.5" stroke-linecap="round" stroke-linejoin="round"/>
<path d="M25.508 14.5H25.498M24.5 20C24.5 21.1935 24.0259 22.3381 23.182 23.182C22.3381 24.0259 21.1935 24.5 20 24.5C18.8065 24.5 17.6619 24.0259 16.818 23.182C15.9741 22.3381 15.5 21.1935 15.5 20C15.5 18.8065 15.9741 17.6619 16.818 16.818C17.6619 15.9741 18.8065 15.5 20 15.5C21.1935 15.5 22.3381 15.9741 23.182 16.818C24.0259 17.6619 24.5 18.8065 24.5 20Z" stroke="white" stroke-width="1.5" stroke-linecap="round" stroke-linejoin="round"/>
</g>
</svg>
