<svg width="24" height="24" viewBox="0 0 24 24" fill="none" xmlns="http://www.w3.org/2000/svg">
<path d="M11.5651 13.873L8.88806 11.196C8.85139 11.1593 8.82039 11.1163 8.79506 11.067C8.77039 11.0183 8.75806 10.966 8.75806 10.91C8.75806 10.798 8.79472 10.7017 8.86806 10.621C8.94272 10.5403 9.04072 10.5 9.16206 10.5H14.8391C14.9597 10.5 15.0571 10.5413 15.1311 10.624C15.2051 10.7067 15.2421 10.8027 15.2421 10.912C15.2421 10.94 15.1987 11.0347 15.1121 11.196L12.4351 13.873C12.3731 13.935 12.3064 13.9827 12.2351 14.016C12.1637 14.0493 12.0854 14.066 12.0001 14.066C11.9147 14.066 11.8364 14.0493 11.7651 14.016C11.6937 13.9827 11.6271 13.935 11.5651 13.873Z" fill="white"/>
</svg>
